HIERARCHY
ROOT pelvis
{
  OFFSET 0 100 0
  CHANNELS 6 Xposition Yposition Zposition Zrotation Xrotation Yrotation
  JOINT pelvis_right_femur
  {
    OFFSET -10.78128 -3.44521 -0.5502486
    CHANNELS 3 Zrotation Xrotation Yrotation
    JOINT right_femur_tibia
    {
      OFFSET -0.8047443 -44.0398 -0.1307829
      CHANNELS 3 Zrotation Xrotation Yrotation
      JOINT right_tibia_foot
      {
        OFFSET 3.006224 -47.83518 -5
        CHANNELS 3 Zrotation Xrotation Yrotation
        End Site
        {
          OFFSET 0 -5 15
        }
      }
    }
  }
  JOINT pelvis_left_femur
  {
    OFFSET 10.78128 -3.44521 -0.5502486
    CHANNELS 3 Zrotation Xrotation Yrotation
    JOINT left_femur_tibia
    {
      OFFSET 0.8047443 -44.0398 -0.1307829
      CHANNELS 3 Zrotation Xrotation Yrotation
      JOINT left_tibia_foot
      {
        OFFSET -4.370144 -48.10324 -4.275266
        CHANNELS 3 Zrotation Xrotation Yrotation
        End Site
        {
          OFFSET 0 -5 15
        }
      }
    }
  }
  JOINT pelvis_spine1
  {
    OFFSET 0 6.468898 -3.129235
    CHANNELS 3 Zrotation Xrotation Yrotation
    JOINT spine1
    {
      OFFSET 0 23.15396 4.99043
      CHANNELS 3 Zrotation Xrotation Yrotation
      JOINT spine2
      {
        OFFSET 0 20.79997 -5.064912
        CHANNELS 3 Zrotation Xrotation Yrotation
        JOINT neck
        {
          OFFSET 0 14.38658 9.616178
          CHANNELS 3 Zrotation Xrotation Yrotation
          End Site
          {
            OFFSET 0 20 0
          }
        }
      }
      JOINT right_manubrium
      {
        OFFSET -5.722621 16.35077 3.967754
        CHANNELS 3 Zrotation Xrotation Yrotation
        JOINT right_clavicle
        {
          OFFSET -13.16364 1.694482 -4.693211
          CHANNELS 3 Zrotation Xrotation Yrotation
          JOINT right_humerus
          {
            OFFSET -28.5034 -0.3100689 -2.792744
            CHANNELS 3 Zrotation Xrotation Yrotation
            JOINT right_radius
            {
              OFFSET -25.15693 0.02248979 -1.271978
              CHANNELS 3 Zrotation Xrotation Yrotation
              End Site
              {
                OFFSET -15 0 0
              }
            }
          }
        }
      }
      JOINT left_manubrium
      {
        OFFSET 5.722621 16.35077 3.967754
        CHANNELS 3 Zrotation Xrotation Yrotation
        JOINT left_clavicle
        {
          OFFSET 13.16364 1.694482 -4.693211
          CHANNELS 3 Zrotation Xrotation Yrotation
          JOINT left_humerus
          {
            OFFSET 29.39168 -1.063119 -2.237045
            CHANNELS 3 Zrotation Xrotation Yrotation
            JOINT left_radius
            {
              OFFSET 24.59957 -0.9528479 0.9047498
              CHANNELS 3 Zrotation Xrotation Yrotation
              End Site
              {
                OFFSET 15 -0 -0
              }
            }
          }
        }
      }
    }
  }
}
MOTION
Frames: 17
Frame Time: 0.0416666666667
-2084.376 109.3945 640.8777 -3.397128 14.16207 -171.4556 7.492782 6.035449 -1.920259 -0 12.45671 -0 -3.74175 -2.200646 -3.719763 2.636322 -7.52332 2.766207 -0 24.69061 -0 3.656018 -1.279937 5.424838 3.418832 -7.922477 10.72112 -0.6384804 24.56498 -9.321512 -0.1735794 14.16263 0.4288264 0.4648941 -15.4285 -0.5533483 -3.537897 -38.95793 15.9087 95.92263 -0.5141547 -18.32608 -0 0 34.7721 -33.82552 25.16162 19.95053 -0.9034262 -30.80921 -16.82718 -87.18194 5.54754 40.53142 0 0 -37.25828 -2.126217 10.95671 16.82753
-2086.549 109.3827 634.5075 -3.306698 14.18305 -171.8249 7.492782 6.035449 -1.920259 -0 12.45671 -0 -3.74175 -2.200646 -3.719763 2.636322 -7.52332 2.766207 -0 24.69061 -0 3.656018 -1.279937 5.424838 3.418832 -7.922477 10.72112 -0.6384804 24.56498 -9.321512 -0.1735794 14.16263 0.4288264 0.4648941 -15.4285 -0.5533483 -3.537897 -38.95793 15.9087 95.92263 -0.5141547 -18.32608 -0 0 34.7721 -33.82552 25.16162 19.95053 -0.9034262 -30.80921 -16.82718 -87.18194 5.54754 40.53142 0 0 -37.25828 -2.126217 10.95671 16.82753
-2088.682 109.3709 628.1239 -3.216122 14.20345 -172.1943 7.492782 6.035449 -1.920259 -0 12.45671 -0 -3.74175 -2.200646 -3.719763 2.636322 -7.52332 2.766207 -0 24.69061 -0 3.656018 -1.279937 5.424838 3.418832 -7.922477 10.72112 -0.6384804 24.56498 -9.321512 -0.1735794 14.16263 0.4288264 0.4648941 -15.4285 -0.5533483 -3.537897 -38.95793 15.9087 95.92263 -0.5141547 -18.32608 -0 0 34.7721 -33.82552 25.16162 19.95053 -0.9034262 -30.80921 -16.82718 -87.18194 5.54754 40.53142 0 0 -37.25828 -2.126217 10.95671 16.82753
-2090.775 109.3592 621.727 -3.125404 14.22329 -172.5638 7.492782 6.035449 -1.920259 -0 12.45671 -0 -3.74175 -2.200646 -3.719763 2.636322 -7.52332 2.766207 -0 24.69061 -0 3.656018 -1.279937 5.424838 3.418832 -7.922477 10.72112 -0.6384804 24.56498 -9.321512 -0.1735794 14.16263 0.4288264 0.4648941 -15.4285 -0.5533483 -3.537897 -38.95793 15.9087 95.92263 -0.5141547 -18.32608 -0 0 34.7721 -33.82552 25.16162 19.95053 -0.9034262 -30.80921 -16.82718 -87.18194 5.54754 40.53142 0 0 -37.25828 -2.126217 10.95671 16.82753
-2092.827 109.3474 615.3172 -3.034549 14.24257 -172.9333 7.492782 6.035449 -1.920259 -0 12.45671 -0 -3.74175 -2.200646 -3.719763 2.636322 -7.52332 2.766207 -0 24.69061 -0 3.656018 -1.279937 5.424838 3.418832 -7.922477 10.72112 -0.6384804 24.56498 -9.321512 -0.1735794 14.16263 0.4288264 0.4648941 -15.4285 -0.5533483 -3.537897 -38.95793 15.9087 95.92263 -0.5141547 -18.32608 -0 0 34.7721 -33.82552 25.16162 19.95053 -0.9034262 -30.80921 -16.82718 -87.18194 5.54754 40.53142 0 0 -37.25828 -2.126217 10.95671 16.82753
-2094.84 109.3356 608.8947 -2.943559 14.26127 -173.3029 7.492782 6.035449 -1.920259 -0 12.45671 -0 -3.74175 -2.200646 -3.719763 2.636322 -7.52332 2.766207 -0 24.69061 -0 3.656018 -1.279937 5.424838 3.418832 -7.922477 10.72112 -0.6384804 24.56498 -9.321512 -0.1735794 14.16263 0.4288264 0.4648941 -15.4285 -0.5533483 -3.537897 -38.95793 15.9087 95.92263 -0.5141547 -18.32608 -0 0 34.7721 -33.82552 25.16162 19.95053 -0.9034262 -30.80921 -16.82718 -87.18194 5.54754 40.53142 0 0 -37.25828 -2.126217 10.95671 16.82753
-2096.812 109.3238 602.4596 -2.852439 14.27941 -173.6726 7.492782 6.035449 -1.920259 -0 12.45671 -0 -3.74175 -2.200646 -3.719763 2.636322 -7.52332 2.766207 -0 24.69061 -0 3.656018 -1.279937 5.424838 3.418832 -7.922477 10.72112 -0.6384804 24.56498 -9.321512 -0.1735794 14.16263 0.4288264 0.4648941 -15.4285 -0.5533483 -3.537897 -38.95793 15.9087 95.92263 -0.5141547 -18.32608 -0 0 34.7721 -33.82552 25.16162 19.95053 -0.9034262 -30.80921 -16.82718 -87.18194 5.54754 40.53142 0 0 -37.25828 -2.126217 10.95671 16.82753
-2098.744 109.312 596.0124 -2.761193 14.29697 -174.0423 7.492782 6.035449 -1.920259 -0 12.45671 -0 -3.74175 -2.200646 -3.719763 2.636322 -7.52332 2.766207 -0 24.69061 -0 3.656018 -1.279937 5.424838 3.418832 -7.922477 10.72112 -0.6384804 24.56498 -9.321512 -0.1735794 14.16263 0.4288264 0.4648941 -15.4285 -0.5533483 -3.537897 -38.95793 15.9087 95.92263 -0.5141547 -18.32608 -0 0 34.7721 -33.82552 25.16162 19.95053 -0.9034262 -30.80921 -16.82718 -87.18194 5.54754 40.53142 0 0 -37.25828 -2.126217 10.95671 16.82753
-2100.636 109.3002 589.5531 -2.669825 14.31397 -174.4121 7.492782 6.035449 -1.920259 -0 12.45671 -0 -3.74175 -2.200646 -3.719763 2.636322 -7.52332 2.766207 -0 24.69061 -0 3.656018 -1.279937 5.424838 3.418832 -7.922477 10.72112 -0.6384804 24.56498 -9.321512 -0.1735794 14.16263 0.4288264 0.4648941 -15.4285 -0.5533483 -3.537897 -38.95793 15.9087 95.92263 -0.5141547 -18.32608 -0 0 34.7721 -33.82552 25.16162 19.95053 -0.9034262 -30.80921 -16.82718 -87.18194 5.54754 40.53142 0 0 -37.25828 -2.126217 10.95671 16.82753
-2102.487 109.2884 583.0822 -2.578339 14.33039 -174.7819 7.492782 6.035449 -1.920259 -0 12.45671 -0 -3.74175 -2.200646 -3.719763 2.636322 -7.52332 2.766207 -0 24.69061 -0 3.656018 -1.279937 5.424838 3.418832 -7.922477 10.72112 -0.6384804 24.56498 -9.321512 -0.1735794 14.16263 0.4288264 0.4648941 -15.4285 -0.5533483 -3.537897 -38.95793 15.9087 95.92263 -0.5141547 -18.32608 -0 0 34.7721 -33.82552 25.16162 19.95053 -0.9034262 -30.80921 -16.82718 -87.18194 5.54754 40.53142 0 0 -37.25828 -2.126217 10.95671 16.82753
-2104.297 109.2766 576.5998 -2.486739 14.34624 -175.1518 7.492782 6.035449 -1.920259 -0 12.45671 -0 -3.74175 -2.200646 -3.719763 2.636322 -7.52332 2.766207 -0 24.69061 -0 3.656018 -1.279937 5.424838 3.418832 -7.922477 10.72112 -0.6384804 24.56498 -9.321512 -0.1735794 14.16263 0.4288264 0.4648941 -15.4285 -0.5533483 -3.537897 -38.95793 15.9087 95.92263 -0.5141547 -18.32608 -0 0 34.7721 -33.82552 25.16162 19.95053 -0.9034262 -30.80921 -16.82718 -87.18194 5.54754 40.53142 0 0 -37.25828 -2.126217 10.95671 16.82753
-2106.067 109.2648 570.1062 -2.395029 14.36152 -175.5217 7.492782 6.035449 -1.920259 -0 12.45671 -0 -3.74175 -2.200646 -3.719763 2.636322 -7.52332 2.766207 -0 24.69061 -0 3.656018 -1.279937 5.424838 3.418832 -7.922477 10.72112 -0.6384804 24.56498 -9.321512 -0.1735794 14.16263 0.4288264 0.4648941 -15.4285 -0.5533483 -3.537897 -38.95793 15.9087 95.92263 -0.5141547 -18.32608 -0 0 34.7721 -33.82552 25.16162 19.95053 -0.9034262 -30.80921 -16.82718 -87.18194 5.54754 40.53142 0 0 -37.25828 -2.126217 10.95671 16.82753
-2107.796 109.253 563.6016 -2.303212 14.37622 -175.8917 7.492782 6.035449 -1.920259 -0 12.45671 -0 -3.74175 -2.200646 -3.719763 2.636322 -7.52332 2.766207 -0 24.69061 -0 3.656018 -1.279937 5.424838 3.418832 -7.922477 10.72112 -0.6384804 24.56498 -9.321512 -0.1735794 14.16263 0.4288264 0.4648941 -15.4285 -0.5533483 -3.537897 -38.95793 15.9087 95.92263 -0.5141547 -18.32608 -0 0 34.7721 -33.82552 25.16162 19.95053 -0.9034262 -30.80921 -16.82718 -87.18194 5.54754 40.53142 0 0 -37.25828 -2.126217 10.95671 16.82753
-2109.485 109.2413 557.0864 -2.211294 14.39035 -176.2617 7.492782 6.035449 -1.920259 -0 12.45671 -0 -3.74175 -2.200646 -3.719763 2.636322 -7.52332 2.766207 -0 24.69061 -0 3.656018 -1.279937 5.424838 3.418832 -7.922477 10.72112 -0.6384804 24.56498 -9.321512 -0.1735794 14.16263 0.4288264 0.4648941 -15.4285 -0.5533483 -3.537897 -38.95793 15.9087 95.92263 -0.5141547 -18.32608 -0 0 34.7721 -33.82552 25.16162 19.95053 -0.9034262 -30.80921 -16.82718 -87.18194 5.54754 40.53142 0 0 -37.25828 -2.126217 10.95671 16.82753
-2111.132 109.2295 550.5607 -2.119278 14.4039 -176.6318 7.492782 6.035449 -1.920259 -0 12.45671 -0 -3.74175 -2.200646 -3.719763 2.636322 -7.52332 2.766207 -0 24.69061 -0 3.656018 -1.279937 5.424838 3.418832 -7.922477 10.72112 -0.6384804 24.56498 -9.321512 -0.1735794 14.16263 0.4288264 0.4648941 -15.4285 -0.5533483 -3.537897 -38.95793 15.9087 95.92263 -0.5141547 -18.32608 -0 0 34.7721 -33.82552 25.16162 19.95053 -0.9034262 -30.80921 -16.82718 -87.18194 5.54754 40.53142 0 0 -37.25828 -2.126217 10.95671 16.82753
-2112.739 109.2177 544.0248 -2.027167 14.41688 -177.0019 7.492782 6.035449 -1.920259 -0 12.45671 -0 -3.74175 -2.200646 -3.719763 2.636322 -7.52332 2.766207 -0 24.69061 -0 3.656018 -1.279937 5.424838 3.418832 -7.922477 10.72112 -0.6384804 24.56498 -9.321512 -0.1735794 14.16263 0.4288264 0.4648941 -15.4285 -0.5533483 -3.537897 -38.95793 15.9087 95.92263 -0.5141547 -18.32608 -0 0 34.7721 -33.82552 25.16162 19.95053 -0.9034262 -30.80921 -16.82718 -87.18194 5.54754 40.53142 0 0 -37.25828 -2.126217 10.95671 16.82753
-2114.305 109.2059 537.479 -1.934967 14.42928 -177.3721 7.492782 6.035449 -1.920259 -0 12.45671 -0 -3.74175 -2.200646 -3.719763 2.636322 -7.52332 2.766207 -0 24.69061 -0 3.656018 -1.279937 5.424838 3.418832 -7.922477 10.72112 -0.6384804 24.56498 -9.321512 -0.1735794 14.16263 0.4288264 0.4648941 -15.4285 -0.5533483 -3.537897 -38.95793 15.9087 95.92263 -0.5141547 -18.32608 -0 0 34.7721 -33.82552 25.16162 19.95053 -0.9034262 -30.80921 -16.82718 -87.18194 5.54754 40.53142 0 0 -37.25828 -2.126217 10.95671 16.82753
